<svg xmlns="http://www.w3.org/2000/svg" width="70" height="70" viewBox="0 0 70 70">
  <g id="Gruppe_2" data-name="Gruppe 2" transform="translate(-53 -527)">
    <g id="Gruppe_1" data-name="Gruppe 1">
      <circle id="Oval_10" data-name="Oval 10" cx="35" cy="35" r="35" transform="translate(53 527)" fill="#327bd0"/>
    </g>
    <path id="Path_29" data-name="Path 29" d="M10.828,31h0c-3.8,0-6.641-.853-8.446-2.534A8.159,8.159,0,0,1,0,22.211,22.113,22.113,0,0,1,1.49,14.874,44.242,44.242,0,0,1,4.912,7.668C7.389,3.44,10.272,0,11.34,0,11.836,0,12.8.764,14,2.1a39.072,39.072,0,0,1,3.883,5.3,42.361,42.361,0,0,1,3.527,7.01A21.444,21.444,0,0,1,23,21.637a8.337,8.337,0,0,1-2.442,6.493c-1.9,1.786-4.93,2.748-8.992,2.86C11.312,31,11.071,31,10.828,31Zm.54-29C10.625,2,8.76,4.154,6.935,7.121a35.743,35.743,0,0,0-4.52,10.69c-.155.733-.127,1.217.086,1.478a.761.761,0,0,0,.633.245A11.029,11.029,0,0,0,6.4,18.458c.46-.194.936-.394,1.442-.6a19.569,19.569,0,0,1,7.079-1.673,9.371,9.371,0,0,1,5.4,1.623A35.733,35.733,0,0,0,15.8,7.121C13.975,4.154,12.111,2,11.368,2Z" transform="translate(77 547)" fill="#fff"/>
  </g>
</svg>
